<svg width="340" height="284" viewBox="0 0 340 284" fill="none" xmlns="http://www.w3.org/2000/svg">
	<circle cx="284" cy="79" r="56" fill="white" />
	<circle cx="284" cy="79" r="56" fill="url(#paint0_linear_1145_6762)" />
	<circle cx="136.877" cy="237.338" r="46.6625" fill="url(#paint1_linear_1145_6762)" />
	<path d="M172 35C172 54.33 156.33 70 137 70C117.67 70 102 54.33 102 35C102 15.67 117.67 0 137 0C156.33 0 172 15.67 172 35Z" fill="url(#paint2_linear_1145_6762)" />
	<circle cx="169.851" cy="132.191" r="95.1914" fill="url(#paint3_linear_1145_6762)" />
	<path d="M142.707 130.008C143.416 130.12 144.06 130.41 144.639 130.876C145.236 131.343 145.703 131.922 146.039 132.612C146.394 133.303 146.571 134.04 146.571 134.824C146.571 135.814 146.319 136.71 145.815 137.512C145.311 138.296 144.574 138.922 143.603 139.388C142.651 139.836 141.522 140.06 140.215 140.06H132.935V120.544H139.935C141.26 120.544 142.39 120.768 143.323 121.216C144.256 121.646 144.956 122.234 145.423 122.98C145.89 123.727 146.123 124.567 146.123 125.5C146.123 126.658 145.806 127.619 145.171 128.384C144.555 129.131 143.734 129.672 142.707 130.008ZM135.483 128.972H139.767C140.962 128.972 141.886 128.692 142.539 128.132C143.192 127.572 143.519 126.798 143.519 125.808C143.519 124.819 143.192 124.044 142.539 123.484C141.886 122.924 140.943 122.644 139.711 122.644H135.483V128.972ZM139.991 137.96C141.26 137.96 142.25 137.662 142.959 137.064C143.668 136.467 144.023 135.636 144.023 134.572C144.023 133.49 143.65 132.64 142.903 132.024C142.156 131.39 141.158 131.072 139.907 131.072H135.483V137.96H139.991ZM152.655 127.208C153.103 126.331 153.737 125.65 154.559 125.164C155.399 124.679 156.416 124.436 157.611 124.436V127.068H156.939C154.083 127.068 152.655 128.618 152.655 131.716V140.06H150.107V124.716H152.655V127.208ZM159.6 132.332C159.6 130.764 159.917 129.392 160.552 128.216C161.187 127.022 162.055 126.098 163.156 125.444C164.276 124.791 165.517 124.464 166.88 124.464C168.224 124.464 169.391 124.754 170.38 125.332C171.369 125.911 172.107 126.639 172.592 127.516V124.716H175.168V140.06H172.592V137.204C172.088 138.1 171.332 138.847 170.324 139.444C169.335 140.023 168.177 140.312 166.852 140.312C165.489 140.312 164.257 139.976 163.156 139.304C162.055 138.632 161.187 137.69 160.552 136.476C159.917 135.263 159.6 133.882 159.6 132.332ZM172.592 132.36C172.592 131.203 172.359 130.195 171.892 129.336C171.425 128.478 170.791 127.824 169.988 127.376C169.204 126.91 168.336 126.676 167.384 126.676C166.432 126.676 165.564 126.9 164.78 127.348C163.996 127.796 163.371 128.45 162.904 129.308C162.437 130.167 162.204 131.175 162.204 132.332C162.204 133.508 162.437 134.535 162.904 135.412C163.371 136.271 163.996 136.934 164.78 137.4C165.564 137.848 166.432 138.072 167.384 138.072C168.336 138.072 169.204 137.848 169.988 137.4C170.791 136.934 171.425 136.271 171.892 135.412C172.359 134.535 172.592 133.518 172.592 132.36ZM188.042 140.06L182.022 133.284V140.06H179.474V119.34H182.022V131.52L187.93 124.716H191.486L184.262 132.36L191.514 140.06H188.042ZM207.884 131.8C207.884 132.286 207.856 132.799 207.8 133.34H195.536C195.629 134.852 196.143 136.038 197.076 136.896C198.028 137.736 199.176 138.156 200.52 138.156C201.621 138.156 202.536 137.904 203.264 137.4C204.011 136.878 204.533 136.187 204.832 135.328H207.576C207.165 136.803 206.344 138.007 205.112 138.94C203.88 139.855 202.349 140.312 200.52 140.312C199.064 140.312 197.757 139.986 196.6 139.332C195.461 138.679 194.565 137.755 193.912 136.56C193.259 135.347 192.932 133.947 192.932 132.36C192.932 130.774 193.249 129.383 193.884 128.188C194.519 126.994 195.405 126.079 196.544 125.444C197.701 124.791 199.027 124.464 200.52 124.464C201.976 124.464 203.264 124.782 204.384 125.416C205.504 126.051 206.363 126.928 206.96 128.048C207.576 129.15 207.884 130.4 207.884 131.8ZM205.252 131.268C205.252 130.298 205.037 129.467 204.608 128.776C204.179 128.067 203.591 127.535 202.844 127.18C202.116 126.807 201.304 126.62 200.408 126.62C199.12 126.62 198.019 127.031 197.104 127.852C196.208 128.674 195.695 129.812 195.564 131.268H205.252Z" fill="white" />
	<path d="M130.949 245.518C129.915 245.518 128.971 245.278 128.117 244.798C127.264 244.307 126.587 243.63 126.085 242.766C125.595 241.891 125.349 240.91 125.349 239.822C125.349 238.734 125.595 237.758 126.085 236.894C126.587 236.019 127.264 235.342 128.117 234.862C128.971 234.371 129.915 234.126 130.949 234.126C131.995 234.126 132.944 234.371 133.797 234.862C134.651 235.342 135.323 236.014 135.813 236.878C136.304 237.742 136.549 238.723 136.549 239.822C136.549 240.92 136.304 241.902 135.813 242.766C135.323 243.63 134.651 244.307 133.797 244.798C132.944 245.278 131.995 245.518 130.949 245.518ZM130.949 244.254C131.728 244.254 132.427 244.072 133.045 243.71C133.675 243.347 134.165 242.83 134.517 242.158C134.88 241.486 135.061 240.707 135.061 239.822C135.061 238.926 134.88 238.147 134.517 237.486C134.165 236.814 133.68 236.296 133.061 235.934C132.443 235.571 131.739 235.39 130.949 235.39C130.16 235.39 129.456 235.571 128.837 235.934C128.219 236.296 127.728 236.814 127.365 237.486C127.013 238.147 126.837 238.926 126.837 239.822C126.837 240.707 127.013 241.486 127.365 242.158C127.728 242.83 128.219 243.347 128.837 243.71C129.467 244.072 130.171 244.254 130.949 244.254ZM139.224 235.214C138.946 235.214 138.712 235.118 138.52 234.926C138.328 234.734 138.232 234.499 138.232 234.222C138.232 233.944 138.328 233.71 138.52 233.518C138.712 233.326 138.946 233.23 139.224 233.23C139.49 233.23 139.714 233.326 139.896 233.518C140.088 233.71 140.184 233.944 140.184 234.222C140.184 234.499 140.088 234.734 139.896 234.926C139.714 235.118 139.49 235.214 139.224 235.214ZM139.928 236.638V245.406H138.472V236.638H139.928ZM143.865 233.566V245.406H142.409V233.566H143.865Z" fill="white" />
	<circle cx="64.7053" cy="181.343" r="64.7053" fill="url(#paint4_linear_1145_6762)" />
	<path d="M45.0065 170.398V172.026H40.8265V185.732H38.8245V172.026H34.6225V170.398H45.0065ZM48.5049 171.718C48.1235 171.718 47.8009 171.586 47.5369 171.322C47.2729 171.058 47.1409 170.735 47.1409 170.354C47.1409 169.972 47.2729 169.65 47.5369 169.386C47.8009 169.122 48.1235 168.99 48.5049 168.99C48.8715 168.99 49.1795 169.122 49.4289 169.386C49.6929 169.65 49.8249 169.972 49.8249 170.354C49.8249 170.735 49.6929 171.058 49.4289 171.322C49.1795 171.586 48.8715 171.718 48.5049 171.718ZM49.4729 173.676V185.732H47.4709V173.676H49.4729ZM54.8869 175.634C55.2389 174.944 55.7376 174.409 56.3829 174.028C57.0429 173.646 57.8423 173.456 58.7809 173.456V175.524H58.2529C56.0089 175.524 54.8869 176.741 54.8869 179.176V185.732H52.8849V173.676H54.8869V175.634ZM72.092 179.242C72.092 179.623 72.07 180.026 72.026 180.452H62.39C62.4633 181.64 62.8666 182.571 63.6 183.246C64.348 183.906 65.25 184.236 66.306 184.236C67.1713 184.236 67.89 184.038 68.462 183.642C69.0486 183.231 69.4593 182.688 69.694 182.014H71.85C71.5273 183.172 70.882 184.118 69.914 184.852C68.946 185.57 67.7433 185.93 66.306 185.93C65.162 185.93 64.1353 185.673 63.226 185.16C62.3313 184.646 61.6273 183.92 61.114 182.982C60.6006 182.028 60.344 180.928 60.344 179.682C60.344 178.435 60.5933 177.342 61.092 176.404C61.5906 175.465 62.2873 174.746 63.182 174.248C64.0913 173.734 65.1326 173.478 66.306 173.478C67.45 173.478 68.462 173.727 69.342 174.226C70.222 174.724 70.8966 175.414 71.366 176.294C71.85 177.159 72.092 178.142 72.092 179.242ZM70.024 178.824C70.024 178.061 69.8553 177.408 69.518 176.866C69.1806 176.308 68.7186 175.89 68.132 175.612C67.56 175.318 66.922 175.172 66.218 175.172C65.206 175.172 64.3406 175.494 63.622 176.14C62.918 176.785 62.5146 177.68 62.412 178.824H70.024ZM79.0026 185.93C78.0786 185.93 77.2499 185.776 76.5166 185.468C75.7832 185.145 75.2039 184.705 74.7786 184.148C74.3532 183.576 74.1186 182.923 74.0746 182.19H76.1426C76.2012 182.791 76.4799 183.282 76.9786 183.664C77.4919 184.045 78.1592 184.236 78.9806 184.236C79.7432 184.236 80.3446 184.067 80.7846 183.73C81.2246 183.392 81.4446 182.967 81.4446 182.454C81.4446 181.926 81.2099 181.537 80.7406 181.288C80.2712 181.024 79.5452 180.767 78.5626 180.518C77.6679 180.283 76.9346 180.048 76.3626 179.814C75.8052 179.564 75.3212 179.205 74.9106 178.736C74.5146 178.252 74.3166 177.621 74.3166 176.844C74.3166 176.228 74.4999 175.663 74.8666 175.15C75.2332 174.636 75.7539 174.233 76.4286 173.94C77.1032 173.632 77.8732 173.478 78.7386 173.478C80.0732 173.478 81.1512 173.815 81.9726 174.49C82.7939 175.164 83.2339 176.088 83.2926 177.262H81.2906C81.2466 176.631 80.9899 176.125 80.5206 175.744C80.0659 175.362 79.4499 175.172 78.6726 175.172C77.9539 175.172 77.3819 175.326 76.9566 175.634C76.5312 175.942 76.3186 176.345 76.3186 176.844C76.3186 177.24 76.4432 177.57 76.6926 177.834C76.9566 178.083 77.2792 178.288 77.6606 178.45C78.0566 178.596 78.5992 178.765 79.2886 178.956C80.1539 179.19 80.8579 179.425 81.4006 179.66C81.9432 179.88 82.4052 180.217 82.7866 180.672C83.1826 181.126 83.3879 181.72 83.4026 182.454C83.4026 183.114 83.2192 183.708 82.8526 184.236C82.4859 184.764 81.9652 185.182 81.2906 185.49C80.6306 185.783 79.8679 185.93 79.0026 185.93Z" fill="white" />
	<path d="M262.071 71.032V74.76H266.135V75.96H262.071V79.8H266.615V81H260.615V69.832H266.615V71.032H262.071ZM270.274 69.16V81H268.818V69.16H270.274ZM280.755 76.28C280.755 76.5573 280.739 76.8507 280.707 77.16H273.699C273.753 78.024 274.046 78.7013 274.579 79.192C275.123 79.672 275.779 79.912 276.547 79.912C277.177 79.912 277.699 79.768 278.115 79.48C278.542 79.1813 278.841 78.7867 279.011 78.296H280.579C280.345 79.1387 279.875 79.8267 279.171 80.36C278.467 80.8827 277.593 81.144 276.547 81.144C275.715 81.144 274.969 80.9573 274.307 80.584C273.657 80.2107 273.145 79.6827 272.771 79C272.398 78.3067 272.211 77.5067 272.211 76.6C272.211 75.6933 272.393 74.8987 272.755 74.216C273.118 73.5333 273.625 73.0107 274.275 72.648C274.937 72.2747 275.694 72.088 276.547 72.088C277.379 72.088 278.115 72.2693 278.755 72.632C279.395 72.9947 279.886 73.496 280.227 74.136C280.579 74.7653 280.755 75.48 280.755 76.28ZM279.251 75.976C279.251 75.4213 279.129 74.9467 278.883 74.552C278.638 74.1467 278.302 73.8427 277.875 73.64C277.459 73.4267 276.995 73.32 276.483 73.32C275.747 73.32 275.118 73.5547 274.595 74.024C274.083 74.4933 273.79 75.144 273.715 75.976H279.251ZM282.133 76.6C282.133 75.6933 282.315 74.904 282.677 74.232C283.04 73.5493 283.541 73.0213 284.181 72.648C284.832 72.2747 285.573 72.088 286.405 72.088C287.483 72.088 288.368 72.3493 289.061 72.872C289.765 73.3947 290.229 74.12 290.453 75.048H288.885C288.736 74.5147 288.443 74.0933 288.005 73.784C287.579 73.4747 287.045 73.32 286.405 73.32C285.573 73.32 284.901 73.608 284.389 74.184C283.877 74.7493 283.621 75.5547 283.621 76.6C283.621 77.656 283.877 78.472 284.389 79.048C284.901 79.624 285.573 79.912 286.405 79.912C287.045 79.912 287.579 79.7627 288.005 79.464C288.432 79.1653 288.725 78.7387 288.885 78.184H290.453C290.219 79.08 289.749 79.8 289.045 80.344C288.341 80.8773 287.461 81.144 286.405 81.144C285.573 81.144 284.832 80.9573 284.181 80.584C283.541 80.2107 283.04 79.6827 282.677 79C282.315 78.3173 282.133 77.5173 282.133 76.6ZM294.172 73.432V78.6C294.172 79.0267 294.263 79.3307 294.444 79.512C294.625 79.6827 294.94 79.768 295.388 79.768H296.46V81H295.148C294.337 81 293.729 80.8133 293.324 80.44C292.919 80.0667 292.716 79.4533 292.716 78.6V73.432H291.58V72.232H292.716V70.024H294.172V72.232H296.46V73.432H294.172ZM299.68 73.656C299.936 73.1547 300.299 72.7653 300.768 72.488C301.248 72.2107 301.83 72.072 302.512 72.072V73.576H302.128C300.496 73.576 299.68 74.4613 299.68 76.232V81H298.224V72.232H299.68V73.656ZM304.945 70.808C304.668 70.808 304.433 70.712 304.241 70.52C304.049 70.328 303.953 70.0933 303.953 69.816C303.953 69.5387 304.049 69.304 304.241 69.112C304.433 68.92 304.668 68.824 304.945 68.824C305.212 68.824 305.436 68.92 305.617 69.112C305.809 69.304 305.905 69.5387 305.905 69.816C305.905 70.0933 305.809 70.328 305.617 70.52C305.436 70.712 305.212 70.808 304.945 70.808ZM305.649 72.232V81H304.193V72.232H305.649ZM307.586 76.6C307.586 75.6933 307.768 74.904 308.13 74.232C308.493 73.5493 308.994 73.0213 309.634 72.648C310.285 72.2747 311.026 72.088 311.858 72.088C312.936 72.088 313.821 72.3493 314.514 72.872C315.218 73.3947 315.682 74.12 315.906 75.048H314.338C314.189 74.5147 313.896 74.0933 313.458 73.784C313.032 73.4747 312.498 73.32 311.858 73.32C311.026 73.32 310.354 73.608 309.842 74.184C309.33 74.7493 309.074 75.5547 309.074 76.6C309.074 77.656 309.33 78.472 309.842 79.048C310.354 79.624 311.026 79.912 311.858 79.912C312.498 79.912 313.032 79.7627 313.458 79.464C313.885 79.1653 314.178 78.7387 314.338 78.184H315.906C315.672 79.08 315.202 79.8 314.498 80.344C313.794 80.8773 312.914 81.144 311.858 81.144C311.026 81.144 310.285 80.9573 309.634 80.584C308.994 80.2107 308.493 79.6827 308.13 79C307.768 78.3173 307.586 77.5173 307.586 76.6Z" fill="#3E4244" />
	<path d="M123.871 31.112H126.799V32H122.779V23.636H123.871V31.112ZM128.523 24.356C128.315 24.356 128.139 24.284 127.995 24.14C127.851 23.996 127.779 23.82 127.779 23.612C127.779 23.404 127.851 23.228 127.995 23.084C128.139 22.94 128.315 22.868 128.523 22.868C128.723 22.868 128.891 22.94 129.027 23.084C129.171 23.228 129.243 23.404 129.243 23.612C129.243 23.82 129.171 23.996 129.027 24.14C128.891 24.284 128.723 24.356 128.523 24.356ZM129.051 25.424V32H127.959V25.424H129.051ZM133.624 25.316C134.192 25.316 134.688 25.44 135.112 25.688C135.544 25.936 135.864 26.248 136.072 26.624V25.424H137.176V32.144C137.176 32.744 137.048 33.276 136.792 33.74C136.536 34.212 136.168 34.58 135.688 34.844C135.216 35.108 134.664 35.24 134.032 35.24C133.168 35.24 132.448 35.036 131.872 34.628C131.296 34.22 130.956 33.664 130.852 32.96H131.932C132.052 33.36 132.3 33.68 132.676 33.92C133.052 34.168 133.504 34.292 134.032 34.292C134.632 34.292 135.12 34.104 135.496 33.728C135.88 33.352 136.072 32.824 136.072 32.144V30.764C135.856 31.148 135.536 31.468 135.112 31.724C134.688 31.98 134.192 32.108 133.624 32.108C133.04 32.108 132.508 31.964 132.028 31.676C131.556 31.388 131.184 30.984 130.912 30.464C130.64 29.944 130.504 29.352 130.504 28.688C130.504 28.016 130.64 27.428 130.912 26.924C131.184 26.412 131.556 26.016 132.028 25.736C132.508 25.456 133.04 25.316 133.624 25.316ZM136.072 28.7C136.072 28.204 135.972 27.772 135.772 27.404C135.572 27.036 135.3 26.756 134.956 26.564C134.62 26.364 134.248 26.264 133.84 26.264C133.432 26.264 133.06 26.36 132.724 26.552C132.388 26.744 132.12 27.024 131.92 27.392C131.72 27.76 131.62 28.192 131.62 28.688C131.62 29.192 131.72 29.632 131.92 30.008C132.12 30.376 132.388 30.66 132.724 30.86C133.06 31.052 133.432 31.148 133.84 31.148C134.248 31.148 134.62 31.052 134.956 30.86C135.3 30.66 135.572 30.376 135.772 30.008C135.972 29.632 136.072 29.196 136.072 28.7ZM142.286 25.304C142.782 25.304 143.23 25.412 143.63 25.628C144.03 25.836 144.342 26.152 144.566 26.576C144.798 27 144.914 27.516 144.914 28.124V32H143.834V28.28C143.834 27.624 143.67 27.124 143.342 26.78C143.014 26.428 142.566 26.252 141.998 26.252C141.422 26.252 140.962 26.432 140.618 26.792C140.282 27.152 140.114 27.676 140.114 28.364V32H139.022V23.12H140.114V26.36C140.33 26.024 140.626 25.764 141.002 25.58C141.386 25.396 141.814 25.304 142.286 25.304ZM148.029 26.324V30.2C148.029 30.52 148.097 30.748 148.233 30.884C148.369 31.012 148.605 31.076 148.941 31.076H149.745V32H148.761C148.153 32 147.697 31.86 147.393 31.58C147.089 31.3 146.937 30.84 146.937 30.2V26.324H146.085V25.424H146.937V23.768H148.029V25.424H149.745V26.324H148.029Z" fill="white" />
	<defs>
		<linearGradient id="paint0_linear_1145_6762" x1="319" y1="58.5" x2="284" y2="135" gradientUnits="userSpaceOnUse">
			<stop stop-color="#9EB3D2" stop-opacity="0.47" />
			<stop offset="1" stop-color="#142F59" stop-opacity="0.5" />
		</linearGradient>
		<linearGradient id="paint1_linear_1145_6762" x1="78.4999" y1="226" x2="200.5" y2="256" gradientUnits="userSpaceOnUse">
			<stop stop-color="#5DDAE1" />
			<stop offset="1" stop-color="#00ABB6" />
		</linearGradient>
		<linearGradient id="paint2_linear_1145_6762" x1="167.5" y1="-7.01418e-08" x2="102" y2="31.5" gradientUnits="userSpaceOnUse">
			<stop stop-color="#4B40D1" />
			<stop offset="1" stop-color="#0B0097" />
		</linearGradient>
		<linearGradient id="paint3_linear_1145_6762" x1="169.851" y1="68.1083" x2="128.788" y2="218.673" gradientUnits="userSpaceOnUse">
			<stop offset="0.260417" stop-color="#1E55A9" />
			<stop offset="1" stop-color="#002F76" />
		</linearGradient>
		<linearGradient id="paint4_linear_1145_6762" x1="64.7053" y1="116.637" x2="64.7053" y2="246.048" gradientUnits="userSpaceOnUse">
			<stop stop-color="#ECA0A0" />
			<stop offset="1" stop-color="#E66868" />
		</linearGradient>
	</defs>
</svg>
