<svg width="171" height="366" viewBox="0 0 171 366" fill="none" xmlns="http://www.w3.org/2000/svg">
	<g filter="url(#filter0_d_0_2236)">
		<path d="M20.4444 49C20.4444 49 36.9443 19 83.4444 19C129.945 19 146.444 49 146.444 49C146.444 49 148.444 60 148.444 84C148.444 108 145.444 114.5 145.444 117V131C145.444 131 155.444 135 156.444 140C157.444 145 156.444 146.5 156.444 146.5L145.444 140C145.444 140 147.444 180 147.444 202C147.444 224 146.444 253.5 146.444 253.5C146.444 253.5 148.444 255.5 148.444 259.5V308.5C148.444 312 145.654 317.462 142.444 323C139.853 331.422 137.924 334.595 133.944 338.5C116.754 351.019 106.65 353.192 83.4444 353C60.2392 352.808 50.1348 351.019 32.9444 338.5C28.9649 334.595 27.0361 331.422 24.4444 323C21.235 317.462 18.4444 312 18.4444 308.5V259.5C18.4444 255.5 20.4444 253.5 20.4444 253.5C20.4444 253.5 19.4444 224 19.4444 202C19.4444 180 21.4444 140 21.4444 140L12.0753 145.536C11.1606 146.077 10.0996 145.727 10.0253 144.668C9.95424 143.653 10.0144 142.15 10.4444 140C11.4444 135 21.4444 131 21.4444 131V117C21.4444 114.5 18.4443 108 18.4444 84C18.4446 60 20.4444 49 20.4444 49Z" fill="url(#paint0_linear_0_2236)" />
		<path d="M31.4443 335C27.0693 330 27.9443 320 29.4443 315C30.111 318.167 30.4444 326 33.9444 331.5C36.8256 336.028 50.4443 344 56.4444 347C49.9443 345 36.9443 341.286 31.4443 335Z" fill="#960000" />
		<path d="M135.444 335C139.819 330 138.944 320 137.444 315C136.778 318.167 136.444 326 132.944 331.5C130.063 336.028 116.444 344 110.444 347C116.944 345 129.944 341.286 135.444 335Z" fill="#960000" />
		<path d="M29.3711 49C31.3711 42.5 42.3711 33 52.3711 33C46.8712 38.5 43.3712 43 39.3711 51C35.3711 59 33.8711 64 31.3711 64C28.8712 64 27.3712 55.5 29.3711 49Z" fill="url(#paint1_linear_0_2236)" />
		<path d="M138.444 49C136.444 42.5 125.444 33 115.444 33C120.944 38.5 124.444 43 128.444 51C132.444 59 133.944 64 136.444 64C138.944 64 140.444 55.5 138.444 49Z" fill="url(#paint2_linear_0_2236)" />
		<path d="M57.4443 33.04C45.9443 41.04 33.4443 92.5399 33.4443 109.04H133.444C133.444 92.5399 120.944 41.04 109.444 33.04C97.9443 25.04 83.4443 26.04 83.4443 26.04C83.4443 26.04 68.9443 25.04 57.4443 33.04Z" fill="url(#paint3_linear_0_2236)" stroke="#DADADA" />
		<path fill-rule="evenodd" clip-rule="evenodd" d="M78.7245 40.4406C80.3921 41.1706 82.0211 41.4026 83.4443 41.3917H83.4445C84.8678 41.4026 86.4971 41.1706 88.1644 40.4406C88.363 40.8023 88.4443 41.0216 88.4443 41.0216C86.6216 41.7459 84.9145 41.9938 83.4445 42C81.9745 41.9938 80.2673 41.7459 78.4443 41.0216C78.4443 41.0216 78.5016 40.8435 78.7245 40.4406ZM82.0448 39.9017L83.4438 32L84.8541 39.9028C86.1786 39.9019 86.5987 39.755 86.6598 39.1556C86.6598 39.1556 87.5547 39.4906 88.0054 40.1709C86.2451 40.9902 84.476 41.0272 84.476 41.0272L83.4449 39.7658L82.4139 41.027C82.4139 41.027 80.6449 40.99 78.8843 40.1707C79.3354 39.4904 80.23 39.1554 80.23 39.1554C80.2907 39.7548 80.7113 39.9017 82.0448 39.9017Z" fill="#9E9E9E" />
		<path d="M83.4443 93C47.4443 93 33.4443 108.5 33.4443 108.5V116.52C33.4443 119.17 33.63 121.796 33.9959 124.421C35.9525 138.454 42.4443 186.137 42.4443 201C42.4443 218.5 48.4443 311.5 48.4443 311.5C50.4443 315.5 54.9443 328.5 83.4443 328.5C111.944 328.5 116.444 315.5 118.444 311.5C118.444 311.5 124.444 218.5 124.444 201C124.444 186.137 130.936 138.454 132.893 124.421C133.259 121.796 133.444 119.17 133.444 116.52V108.5C133.444 108.5 119.444 93 83.4443 93Z" fill="url(#paint4_linear_0_2236)" />
		<path d="M40 312V311.5H39.5V312H40ZM40.0005 312V312.5H40.355L40.4723 312.165L40.0005 312ZM43 289.5V289H42.5V289.5H43ZM124 289.5H124.5V289H124V289.5ZM126.999 312L126.528 312.165L126.645 312.5H126.999V312ZM127 312H127.5V311.5H127V312ZM127 341L127.372 341.334L127.5 341.192V341H127ZM40 341H39.5V341.192L39.6284 341.334L40 341ZM39.5 312V312.001H40.5V312H39.5ZM40.0005 311.5H40V312.5H40.0005V311.5ZM40.4723 312.165C40.5304 312 43.5 303.464 43.5 289.5H42.5C42.5 303.325 39.5596 311.746 39.5287 311.835L40.4723 312.165ZM43 290H124V289H43V290ZM123.5 289.5C123.5 303.464 126.47 312 126.528 312.165L127.471 311.835C127.44 311.746 124.5 303.325 124.5 289.5H123.5ZM127 311.5H126.999V312.5H127V311.5ZM127.5 312.001V312H126.5V312.001H127.5ZM127.5 324V312.001H126.5V324H127.5ZM127.5 329V324H126.5V329H127.5ZM127.5 341V329H126.5V341H127.5ZM83.5 351.5C100.797 351.5 111.735 348.993 118.366 346.467C121.681 345.204 123.919 343.937 125.335 342.976C126.043 342.496 126.546 342.093 126.875 341.806C127.039 341.663 127.16 341.549 127.241 341.468C127.282 341.428 127.313 341.397 127.335 341.374C127.345 341.363 127.354 341.354 127.36 341.347C127.363 341.344 127.366 341.341 127.367 341.339C127.368 341.338 127.369 341.337 127.37 341.336C127.37 341.336 127.371 341.335 127.371 341.335C127.371 341.335 127.372 341.334 127 341C126.628 340.666 126.629 340.665 126.629 340.665C126.629 340.665 126.629 340.665 126.629 340.665C126.629 340.664 126.629 340.664 126.629 340.665C126.629 340.665 126.628 340.666 126.627 340.667C126.624 340.67 126.619 340.676 126.612 340.683C126.597 340.699 126.573 340.723 126.54 340.756C126.472 340.822 126.366 340.923 126.217 341.053C125.919 341.313 125.449 341.691 124.774 342.149C123.425 343.063 121.256 344.296 118.009 345.533C111.515 348.007 100.703 350.5 83.5 350.5V351.5ZM40 341C39.6284 341.334 39.6287 341.335 39.6291 341.335C39.6293 341.335 39.6297 341.336 39.63 341.336C39.6307 341.337 39.6315 341.338 39.6325 341.339C39.6345 341.341 39.637 341.344 39.64 341.347C39.6462 341.354 39.6546 341.363 39.6654 341.374C39.6869 341.397 39.7178 341.428 39.7586 341.468C39.8401 341.549 39.961 341.663 40.1254 341.806C40.4542 342.093 40.9566 342.496 41.6647 342.976C43.0811 343.937 45.3189 345.204 48.6345 346.467C55.2652 348.993 66.2026 351.5 83.5 351.5V350.5C66.2974 350.5 55.4848 348.007 48.9905 345.533C45.7436 344.296 43.5751 343.063 42.2259 342.149C41.5512 341.691 41.0809 341.313 40.7828 341.053C40.6337 340.923 40.5276 340.822 40.4604 340.756C40.4268 340.723 40.403 340.699 40.3883 340.683C40.381 340.676 40.376 340.67 40.3733 340.667C40.3719 340.666 40.3711 340.665 40.3708 340.665C40.3707 340.664 40.3707 340.664 40.3708 340.665C40.3709 340.665 40.3711 340.665 40.3711 340.665C40.3714 340.665 40.3716 340.666 40 341ZM39.5 329V341H40.5V329H39.5ZM39.5 324V329H40.5V324H39.5ZM39.5 312.001V324H40.5V312.001H39.5Z" fill="black" fill-opacity="0.4" />
		<path d="M40 341V324H127V341C127 341 118 351 83.5 351C49 351 40 341 40 341Z" fill="#151515" />
		<path d="M40 331V314H127V331C127 331 115.5 340 83.5 340C51.5 340 40 331 40 331Z" fill="#E82127" />
		<path d="M40 329V312H127V329C127 329 115.5 338 83.5 338C51.5 338 40 329 40 329Z" fill="url(#paint5_radial_0_2236)" />
		<path fill-rule="evenodd" clip-rule="evenodd" d="M40.001 312V319C49.501 327 62.001 324 62.001 324L45.001 312H40.001ZM127 312V319C117.5 327 105 324 105 324L122 312H127Z" fill="#960000" />
		<rect x="75" y="330" width="16" height="6" rx="1" fill="#B0ACAC" />
		<path d="M40 312.001C40 312.001 43 303.001 43 289.001H124C124 303.001 127 312.001 127 312.001C127 312.001 115 326.501 83.5 326.501C52 326.501 40 312.001 40 312.001Z" fill="url(#paint6_linear_0_2236)" />
		<mask id="mask0_0_2236" style="mask-type:alpha" maskUnits="userSpaceOnUse" x="40" y="289" width="87" height="38">
			<path d="M40 312.001C40 312.001 43 303.001 43 289.001H124C124 303.001 127 312.001 127 312.001C127 312.001 115 326.501 83.5 326.501C52 326.501 40 312.001 40 312.001Z" fill="url(#paint7_linear_0_2236)" />
		</mask>
		<g mask="url(#mask0_0_2236)">
			<path d="M83.4443 93C47.4443 93 33.4443 108.5 33.4443 108.5V116.52C33.4443 119.17 33.63 121.796 33.9959 124.421C35.9525 138.454 42.4443 186.137 42.4443 201C42.4443 212.976 45.2543 260.31 47.0282 289C47.492 296.5 48.4443 298.5 48.4443 298.5C50.4443 302.5 54.9443 308.5 83.4443 308.5C111.944 308.5 116.444 302.5 118.444 298.5C118.444 298.5 119.459 295.5 119.86 289C121.634 260.31 124.444 212.976 124.444 201C124.444 186.137 130.936 138.454 132.893 124.421C133.259 121.796 133.444 119.17 133.444 116.52V108.5C133.444 108.5 119.444 93 83.4443 93Z" fill="url(#paint8_linear_0_2236)" />
			<path d="M83.4443 93C47.4443 93 33.4443 108.5 33.4443 108.5V116.52C33.4443 119.17 33.63 121.796 33.9959 124.421C35.9525 138.454 42.4443 186.137 42.4443 201C42.4443 212.976 45.2543 260.31 47.0282 289C47.492 296.5 48.4443 298.5 48.4443 298.5C50.4443 302.5 54.9443 308.5 83.4443 308.5C111.944 308.5 116.444 302.5 118.444 298.5C118.444 298.5 119.459 295.5 119.86 289C121.634 260.31 124.444 212.976 124.444 201C124.444 186.137 130.936 138.454 132.893 124.421C133.259 121.796 133.444 119.17 133.444 116.52V108.5C133.444 108.5 119.444 93 83.4443 93Z" fill="url(#paint9_linear_0_2236)" />
		</g>
		<path d="M26.4444 206C25.9444 144 29.9444 131.5 29.9444 131.5C29.9444 131.5 38.4443 159 39.9443 208C41.4443 257 41.9444 300.5 41.9444 300.5C41.9444 300.5 26.9444 268 26.4444 206Z" fill="#444444" />
		<path d="M140.944 206C141.444 144 137.444 131.5 137.444 131.5C137.444 131.5 128.944 159 127.444 208C125.944 257 125.444 300.5 125.444 300.5C125.444 300.5 140.444 268 140.944 206Z" fill="#444444" />
	</g>
	<circle cx="82.8138" cy="18.2074" r="16.8138" fill="url(#paint10_linear_0_2236)" />
	<circle cx="95.3418" cy="4.5" r="4.5" fill="#3E4244" />
	<path d="M92.8418 7L94.9227 4.47222L92.8862 2H93.754L95.3467 3.94907L96.9246 2H97.7925L95.756 4.47222L97.8418 7H96.969L95.3467 4.99537L93.7146 7H92.8418Z" fill="white" />
	<path d="M80.1803 21.788C81.0763 21.0413 81.7903 20.4207 82.3223 19.926C82.8543 19.422 83.2976 18.8993 83.6523 18.358C84.0069 17.8167 84.1843 17.2847 84.1843 16.762C84.1843 16.286 84.0723 15.9127 83.8483 15.642C83.6243 15.3713 83.2789 15.236 82.8123 15.236C82.3456 15.236 81.9863 15.3947 81.7343 15.712C81.4823 16.02 81.3516 16.4447 81.3423 16.986H79.4383C79.4756 15.866 79.8069 15.0167 80.4323 14.438C81.0669 13.8593 81.8696 13.57 82.8403 13.57C83.9043 13.57 84.7209 13.8547 85.2903 14.424C85.8596 14.984 86.1443 15.726 86.1443 16.65C86.1443 17.378 85.9483 18.0733 85.5563 18.736C85.1643 19.3987 84.7163 19.9773 84.2123 20.472C83.7083 20.9573 83.0503 21.5453 82.2383 22.236H86.3683V23.86H79.4523V22.404L80.1803 21.788Z" fill="white" />
	<circle cx="153.814" cy="271.207" r="16.8138" fill="url(#paint11_linear_0_2236)" />
	<circle cx="166.342" cy="257.5" r="4.5" fill="#3E4244" />
	<path d="M163.842 260L165.923 257.472L163.886 255H164.754L166.347 256.949L167.925 255H168.792L166.756 257.472L168.842 260H167.969L166.347 257.995L164.715 260H163.842Z" fill="white" />
	<path d="M151.81 268.6V266.794H155.184V277H153.168V268.6H151.81Z" fill="white" />
	<defs>
		<filter id="filter0_d_0_2236" x="0" y="11" width="166.889" height="354.011" filterUnits="userSpaceOnUse" color-interpolation-filters="sRGB">
			<feFlood flood-opacity="0" result="BackgroundImageFix" />
			<feColorMatrix in="SourceAlpha" type="matrix" values="0 0 0 0 0 0 0 0 0 0 0 0 0 0 0 0 0 0 127 0" result="hardAlpha" />
			<feOffset dy="2" />
			<feGaussianBlur stdDeviation="5" />
			<feColorMatrix type="matrix" values="0 0 0 0 0 0 0 0 0 0 0 0 0 0 0 0 0 0 0.25 0" />
			<feBlend mode="normal" in2="BackgroundImageFix" result="effect1_dropShadow_0_2236" />
			<feBlend mode="normal" in="SourceGraphic" in2="effect1_dropShadow_0_2236" result="shape" />
		</filter>
		<linearGradient id="paint0_linear_0_2236" x1="10.4443" y1="148.5" x2="156.444" y2="147.5" gradientUnits="userSpaceOnUse">
			<stop stop-color="white" />
			<stop offset="0.486188" stop-color="#DEDEDE" />
			<stop offset="0.994475" stop-color="#DEDEDE" />
		</linearGradient>
		<linearGradient id="paint1_linear_0_2236" x1="41.3711" y1="35" x2="50.3711" y2="51.5" gradientUnits="userSpaceOnUse">
			<stop stop-color="#6E6E6E" />
			<stop offset="0.342541" stop-color="white" />
			<stop offset="0.480663" stop-color="#C9C9C9" />
			<stop offset="0.889503" stop-color="#5D5D5D" />
		</linearGradient>
		<linearGradient id="paint2_linear_0_2236" x1="126.444" y1="35" x2="117.444" y2="51.5" gradientUnits="userSpaceOnUse">
			<stop stop-color="#6E6E6E" />
			<stop offset="0.342541" stop-color="white" />
			<stop offset="0.480663" stop-color="#C9C9C9" />
			<stop offset="0.889503" stop-color="#5D5D5D" />
		</linearGradient>
		<linearGradient id="paint3_linear_0_2236" x1="124.444" y1="65.54" x2="41.9443" y2="66.04" gradientUnits="userSpaceOnUse">
			<stop stop-color="#DADADA" />
			<stop offset="0.331492" stop-color="#F0F0F0" />
			<stop offset="1" stop-color="white" />
		</linearGradient>
		<linearGradient id="paint4_linear_0_2236" x1="33.4443" y1="93" x2="133.444" y2="93" gradientUnits="userSpaceOnUse">
			<stop stop-color="#262626" />
			<stop offset="0.778317" stop-color="#3A3A3A" />
			<stop offset="0.823126" stop-color="#615C5C" />
			<stop offset="0.864312" stop-color="#282828" />
			<stop offset="1" stop-color="#484848" />
		</linearGradient>
		<radialGradient id="paint5_radial_0_2236" cx="0" cy="0" r="1" gradientUnits="userSpaceOnUse" gradientTransform="translate(83 320) rotate(90) scale(12 71.7695)">
			<stop stop-color="#C2C2C2" />
			<stop offset="0.977901" stop-color="#FAFAFA" />
		</radialGradient>
		<linearGradient id="paint6_linear_0_2236" x1="83.5" y1="289.001" x2="83.5" y2="326.501" gradientUnits="userSpaceOnUse">
			<stop stop-color="#A9A9A9" />
			<stop offset="0.707182" stop-color="#F8F8F8" />
			<stop offset="0.945938" stop-color="#FAFAFA" />
			<stop offset="0.950005" stop-color="#3B3B3B" />
		</linearGradient>
		<linearGradient id="paint7_linear_0_2236" x1="83.5" y1="289.001" x2="83.5" y2="326.501" gradientUnits="userSpaceOnUse">
			<stop stop-color="#A9A9A9" />
			<stop offset="0.707182" stop-color="#F8F8F8" />
			<stop offset="0.945938" stop-color="#FAFAFA" />
			<stop offset="0.950005" stop-color="#3B3B3B" />
		</linearGradient>
		<linearGradient id="paint8_linear_0_2236" x1="33.4443" y1="93" x2="133.444" y2="93" gradientUnits="userSpaceOnUse">
			<stop stop-color="#262626" />
			<stop offset="0.778317" stop-color="#3A3A3A" />
			<stop offset="0.823126" stop-color="#615C5C" />
			<stop offset="0.864312" stop-color="#282828" />
			<stop offset="1" stop-color="#484848" />
		</linearGradient>
		<linearGradient id="paint9_linear_0_2236" x1="83" y1="308.5" x2="83" y2="300.5" gradientUnits="userSpaceOnUse">
			<stop stop-opacity="0.6" />
			<stop offset="1" stop-opacity="0" />
		</linearGradient>
		<linearGradient id="paint10_linear_0_2236" x1="82.8138" y1="1.39355" x2="82.8138" y2="35.0212" gradientUnits="userSpaceOnUse">
			<stop stop-color="#ECA0A0" />
			<stop offset="1" stop-color="#FF6464" />
		</linearGradient>
		<linearGradient id="paint11_linear_0_2236" x1="153.814" y1="254.394" x2="153.814" y2="288.021" gradientUnits="userSpaceOnUse">
			<stop stop-color="#ECA0A0" />
			<stop offset="1" stop-color="#FF6464" />
		</linearGradient>
	</defs>
</svg>
