<svg width="34" height="34" viewBox="0 0 34 34" fill="none" xmlns="http://www.w3.org/2000/svg">
<path d="M28.4247 5.57532C27.847 4.9976 26.9292 4.9976 26.3501 5.57532C25.7724 6.15305 25.7724 7.07078 26.3501 7.64987C31.5178 12.8175 31.5178 21.2152 26.3501 26.3845C25.7724 26.9623 25.7724 27.88 26.3501 28.4591C26.6224 28.7314 26.9956 28.9014 27.3701 28.9014C27.7447 28.9014 28.1179 28.7659 28.3901 28.4591C34.7148 22.1344 34.7148 11.8654 28.4247 5.57539L28.4247 5.57532Z" fill="#3E4244"/>
<path d="M23.5623 10.4047C22.9846 9.82694 22.0669 9.82694 21.4878 10.4047C20.9101 10.9824 20.9101 11.9001 21.4878 12.4792C23.9701 14.9615 24.0033 19.0416 21.4878 21.5239C20.9101 22.1016 20.9101 23.0194 21.4878 23.5984C21.7601 23.8707 22.1333 24.0407 22.5078 24.0407C22.8823 24.0407 23.2555 23.9052 23.5278 23.5984C27.2345 19.9581 27.2001 14.0427 23.5623 10.4047L23.5623 10.4047Z" fill="#3E4244"/>
<path d="M7.65 7.65014C8.22773 7.07242 8.22773 6.15469 7.65 5.5756C7.07227 4.99787 6.15454 4.99787 5.57546 5.5756C-0.714544 11.8656 -0.714544 22.1333 5.57546 28.4233C5.84772 28.6955 6.22091 28.8655 6.59546 28.8655C6.97 28.8655 7.34318 28.7301 7.61546 28.4233C8.19318 27.8455 8.19318 26.9278 7.61546 26.3487C2.48214 21.2154 2.48214 12.8177 7.64999 7.65008L7.65 7.65014Z" fill="#3E4244"/>
<path d="M12.4777 12.4777C13.0554 11.8999 13.0554 10.9822 12.4777 10.4031C11.8999 9.82539 10.9822 9.82539 10.4031 10.4031C6.76545 14.0408 6.76545 19.9578 10.4031 23.5955C10.6754 23.8677 11.0486 24.0377 11.4231 24.0377C11.7977 24.0377 12.1708 23.9023 12.4431 23.5955C13.0208 23.0177 13.0208 22.1 12.4431 21.5209C9.99539 19.04 9.99539 14.9599 12.4776 12.4776L12.4777 12.4777Z" fill="#3E4244"/>
<path d="M19.4823 17C19.4823 18.3706 18.3707 19.4823 17.0001 19.4823C15.6294 19.4823 14.5178 18.3706 14.5178 17C14.5178 15.6294 15.6294 14.5177 17.0001 14.5177C18.3707 14.5177 19.4823 15.6294 19.4823 17Z" fill="#3E4244"/>
</svg>
