<svg width="37" height="35" viewBox="0 0 37 35" fill="none" xmlns="http://www.w3.org/2000/svg">
<path d="M7.26273 2.62501C7.01703 2.62365 6.77999 2.71662 6.60513 2.88068C6.43169 3.04611 6.33341 3.27033 6.33486 3.5041V5.99102L3.70582 5.98966C3.46012 5.98966 3.22308 6.08126 3.04822 6.24669C2.87334 6.41075 2.7765 6.63498 2.77795 6.86874V31.5042C2.77939 31.9868 3.19564 32.3765 3.70583 32.3751H22.4286C22.9373 32.3737 23.3492 31.9841 23.3521 31.5042V29.0104H25.9884H25.9869C26.4957 29.0077 26.9062 28.6194 26.909 28.1382V19.6944L33.3955 13.5544C34.4593 12.5481 34.494 10.9253 33.5227 9.86432H33.5213C33.4851 9.811 33.4418 9.76178 33.3941 9.71803C32.2812 8.6653 30.4514 8.66394 29.3385 9.71803L26.9089 12.0149V3.50431C26.9104 3.02033 26.4985 2.62658 25.9868 2.62522L7.26273 2.62501ZM8.18484 4.37501H25.0587V13.762L19.9568 18.5854C19.8527 18.6865 19.7747 18.8109 19.7327 18.9477L18.4898 22.7196C18.3857 23.03 18.4739 23.3691 18.7181 23.6001C18.9624 23.8311 19.3208 23.9132 19.6489 23.8161L23.6364 22.6417C23.7809 22.6007 23.9124 22.5282 24.0194 22.4284L25.0586 21.4454V27.2585L8.18474 27.2599L8.18484 4.37501ZM4.62792 7.73967H6.33485V28.138C6.33629 28.622 6.75254 29.0116 7.26273 29.0103H21.4992V30.6249H4.62796L4.62792 7.73967ZM11.6809 7.78615C11.4308 7.78068 11.1909 7.87092 11.0131 8.03498C10.8354 8.20041 10.7342 8.426 10.7342 8.66117C10.7342 8.89633 10.8354 9.12191 11.0131 9.28735C11.1909 9.45141 11.4308 9.54165 11.6809 9.53618H21.5684C21.817 9.54165 22.0583 9.45141 22.2361 9.28735C22.4139 9.12192 22.5136 8.89633 22.5136 8.66117C22.5136 8.426 22.4139 8.20043 22.2361 8.03498C22.0583 7.87092 21.817 7.78069 21.5684 7.78615H11.6809ZM31.3645 10.6655C31.6218 10.6655 31.8805 10.7612 32.0857 10.9567C32.4962 11.345 32.4962 11.9315 32.0857 12.3197L25.3665 18.6757H25.365C25.3434 18.6949 25.3217 18.7154 25.3 18.7373L23.8431 20.1168L22.4007 18.7523L30.6432 10.9568C30.8484 10.7626 31.1072 10.6669 31.3644 10.6656L31.3645 10.6655ZM11.6809 12.559C11.4308 12.5536 11.1909 12.6438 11.0131 12.8092C10.8354 12.9733 10.7342 13.1989 10.7342 13.434C10.7342 13.6692 10.8354 13.8948 11.0131 14.0602C11.1909 14.2243 11.4308 14.3145 11.6809 14.3091H21.5684C21.817 14.3145 22.0583 14.2243 22.2361 14.0602C22.4139 13.8948 22.5136 13.6692 22.5136 13.434C22.5136 13.1989 22.4139 12.9733 22.2361 12.8092C22.0583 12.6438 21.817 12.5536 21.5684 12.559H11.6809ZM11.5869 17.332V17.3333C11.0854 17.3689 10.7053 17.7763 10.7298 18.2507C10.7559 18.7265 11.1779 19.0957 11.6809 19.0833H17.5472H17.5458C17.7958 19.0874 18.0357 18.9986 18.2135 18.8332C18.3913 18.6691 18.4924 18.4435 18.4924 18.2083C18.4924 17.9718 18.3913 17.7462 18.2135 17.5821C18.0357 17.4167 17.7958 17.3279 17.5458 17.3333H11.6805C11.6487 17.3306 11.6169 17.3306 11.5866 17.3333L11.5869 17.332ZM21.2706 20.1634L22.3517 21.1847L20.7849 21.6441L21.2706 20.1634ZM11.6809 22.098V22.0993C11.1779 22.1089 10.7761 22.4985 10.7761 22.9743C10.7761 23.4501 11.1779 23.8384 11.6809 23.8493H16.189H16.1875C16.4376 23.8548 16.6775 23.7646 16.8553 23.5991C17.033 23.4351 17.1342 23.2095 17.1342 22.9743C17.1342 22.7378 17.033 22.5136 16.8553 22.3481C16.6775 22.1841 16.4376 22.0938 16.1875 22.0993L11.6809 22.098Z" fill="#3E4244"/>
</svg>
