<svg width="29" height="29" viewBox="0 0 29 29" fill="none" xmlns="http://www.w3.org/2000/svg">
<path d="M21.7917 3.52529L21.7914 3.525H21.75H7.25001C5.6217 3.525 4.05909 4.17217 2.9076 5.32376C1.75611 6.47533 1.10885 8.03797 1.10885 9.66616V16.9162C1.10885 17.6385 1.69385 18.2249 2.41644 18.2249C3.1389 18.2249 3.72516 17.6386 3.72516 16.9162V9.66616C3.72516 7.71973 5.30372 6.14116 7.25015 6.14116H21.7502C23.6966 6.14116 25.2752 7.71973 25.2752 9.66616V19.3336C25.2752 21.28 23.6966 22.8586 21.7502 22.8586H12.0839C11.3615 22.8586 10.7752 23.4436 10.7752 24.1662C10.7752 24.8887 11.3614 25.4749 12.0839 25.4749H21.7502C23.3785 25.4749 24.9411 24.8277 26.0926 23.6762C27.2441 22.5246 27.8913 20.9619 27.8913 19.3337V9.66631C27.8913 8.038 27.2441 6.47539 26.0926 5.3239C24.9508 4.18221 23.4049 3.5362 21.7917 3.52529Z" fill="#3E4244" stroke="#3E4244" stroke-width="0.2"/>
<path d="M13.9237 15.6757C14.0558 15.7403 14.198 15.7821 14.3442 15.7994L14.3389 15.8103L14.501 15.8087C14.7571 15.8063 15.0072 15.7291 15.2206 15.5857C15.2206 15.5856 15.2207 15.5856 15.2208 15.5855L22.4525 10.764L22.4661 10.7559C22.7749 10.5721 22.9957 10.2704 23.0755 9.91953C23.1552 9.56868 23.0865 9.20078 22.8879 8.90279L22.8878 8.90271C22.6878 8.60335 22.3726 8.39978 22.0182 8.33969C21.6647 8.27975 21.3026 8.36744 21.0159 8.58207L14.5 12.9298L7.97042 8.58049L7.9705 8.58037L7.96581 8.5776C7.36735 8.2244 6.59832 8.39977 6.212 8.9762L6.21195 8.97628C5.82555 9.55401 5.95813 10.3317 6.5136 10.7498L6.5135 10.7499L6.51827 10.7531L13.7683 15.5868L13.9237 15.6905V15.6757Z" fill="#3E4244" stroke="#3E4244" stroke-width="0.2"/>
<path d="M7.25001 20.4413H2.41628C1.6937 20.4413 1.10869 21.0277 1.10869 21.75C1.10869 22.4724 1.6937 23.0587 2.41628 23.0587H7.25001C7.97247 23.0587 8.55873 22.4725 8.55873 21.75C8.55873 21.0276 7.97247 20.4413 7.25001 20.4413Z" fill="#3E4244" stroke="#3E4244" stroke-width="0.2"/>
</svg>
