<svg width="39" height="39" viewBox="0 0 39 39" fill="none" xmlns="http://www.w3.org/2000/svg">
<path d="M22.23 23.79H24.57C25.4323 23.79 26.13 23.0922 26.13 22.23C26.13 21.3677 25.4323 20.67 24.57 20.67H22.23C21.3678 20.67 20.67 21.3677 20.67 22.23C20.67 23.0922 21.3678 23.79 22.23 23.79Z" fill="#3E4244"/>
<path d="M28.08 7.79999H12.48C10.3259 7.79999 8.58002 9.54586 8.58002 11.7V15.6C8.58002 16.0144 8.74455 16.4104 9.03706 16.7029C9.32957 16.9954 9.72564 17.16 10.14 17.16H28.86V26.13C28.86 26.3372 28.7778 26.5352 28.6315 26.6815C28.4853 26.8277 28.2872 26.91 28.08 26.91H22.62C21.7578 26.91 21.06 27.6078 21.06 28.47C21.06 29.3323 21.7578 30.03 22.62 30.03H28.08C29.1144 30.03 30.1062 29.6187 30.8374 28.8874C31.5687 28.1562 31.98 27.1644 31.98 26.13V11.7C31.98 10.6656 31.5687 9.67384 30.8374 8.94259C30.1062 8.21134 29.1144 7.8 28.08 7.8L28.08 7.79999ZM28.86 14.04H11.7V11.7C11.7 11.2688 12.0489 10.92 12.48 10.92H28.08C28.2872 10.92 28.4853 11.0023 28.6315 11.1485C28.7778 11.2948 28.86 11.4928 28.86 11.7L28.86 14.04Z" fill="#3E4244"/>
<path d="M17.94 29.64C17.94 31.7195 14.82 31.7195 14.82 29.64C14.82 27.5605 17.94 27.5605 17.94 29.64Z" fill="#3E4244"/>
<path d="M10.14 21.84C10.14 23.9194 7.02002 23.9194 7.02002 21.84C7.02002 19.7605 10.14 19.7605 10.14 21.84Z" fill="#3E4244"/>
<path d="M15.2771 20.7371L7.47709 28.5371C6.8662 29.1465 6.8662 30.1337 7.47709 30.743C8.08647 31.3539 9.07367 31.3539 9.68301 30.743L17.483 22.943C18.0939 22.3336 18.0939 21.3464 17.483 20.7371C16.8736 20.1262 15.8864 20.1262 15.2771 20.7371Z" fill="#3E4244"/>
</svg>
