<svg width="52" height="52" viewBox="0 0 52 52" fill="none" xmlns="http://www.w3.org/2000/svg">
	<rect width="52" height="52" rx="8" fill="white" />
	<rect width="52" height="52" rx="8" fill="#1E55A9" fill-opacity="0.08" />
	<path d="M34 24.8815C34 24.097 33.8094 23.3244 33.4458 22.6358L30.4749 17H21.5251L18.5542 22.6358C18.1906 23.3244 18 24.097 18 24.8815V31.069C18 32.1358 18.8354 33 19.8667 33H21.4667C22.4979 33 23.3333 32.1358 23.3333 31.069V30.7931H28.6666V31.069C28.6666 32.1358 29.502 33 30.5333 33H32.1333C33.1645 33 33.9999 32.1358 33.9999 31.069L34 24.8815ZM32.4 31.069C32.4 31.1423 32.3719 31.2123 32.3219 31.264C32.2719 31.3158 32.2042 31.3448 32.1333 31.3448H30.5333C30.3865 31.3448 30.2667 31.2209 30.2667 31.069V29.138H21.7334V31.069C21.7334 31.1423 21.7052 31.2123 21.6552 31.264C21.6052 31.3158 21.5375 31.3448 21.4667 31.3448H19.8667C19.7198 31.3448 19.6 31.2209 19.6 31.069V24.8815C19.6 24.3739 19.723 23.8739 19.9573 23.4278L22.475 18.6552H29.5251L32.0428 23.4278C32.2772 23.8739 32.4001 24.3739 32.4001 24.8815L32.4 31.069Z" fill="#1E55A9" />
	<path d="M22 25.6667C22 26.0208 22.1055 26.3594 22.293 26.6094C22.4805 26.8594 22.7344 27 23 27H29C29.2656 27 29.5195 26.8594 29.707 26.6094C29.8945 26.3594 30 26.0208 30 25.6667V25H22V25.6667Z" fill="#1E55A9" />
</svg>
