<svg width="58" height="68" viewBox="0 0 58 68" fill="none" xmlns="http://www.w3.org/2000/svg">
	<rect width="57.8" height="68" rx="8" fill="#F2F2F2" />
	<path d="M16.6017 17.05C15.25 17.05 14.1465 18.1535 14.1465 19.5052V51.4946C14.1465 52.8463 15.25 53.9498 16.6017 53.9498H40.3833C41.7351 53.9498 42.8529 52.8463 42.8529 51.4946V19.5052C42.8529 18.1535 41.735 17.05 40.3833 17.05H16.6017ZM16.6017 18.6916H40.3833C40.8478 18.6916 41.2113 19.0407 41.2113 19.5052V51.4946C41.2113 51.9591 40.8478 52.3082 40.3833 52.3082H16.6017C16.1372 52.3082 15.7881 51.9591 15.7881 51.4946V19.5052C15.7881 19.0407 16.1372 18.6916 16.6017 18.6916V18.6916ZM19.8849 23.6165C19.4348 23.6165 19.0713 23.9801 19.0713 24.4301C19.0713 24.8802 19.4348 25.2437 19.8849 25.2437H37.1C37.5644 25.2437 37.928 24.8802 37.928 24.4301C37.928 23.9801 37.5644 23.6165 37.1 23.6165H19.8849ZM19.8849 30.9965C19.4348 30.9965 19.0713 31.3601 19.0713 31.8101C19.0713 32.2602 19.4348 32.6237 19.8849 32.6237H37.1C37.5644 32.6237 37.928 32.2602 37.928 31.8101C37.928 31.3601 37.5644 30.9965 37.1 30.9965H19.8849ZM19.8849 38.3765C19.4348 38.3765 19.0713 38.7401 19.0713 39.1901C19.0713 39.6402 19.4348 40.0037 19.8849 40.0037H37.1C37.5644 40.0037 37.928 39.6402 37.928 39.1901C37.928 38.7401 37.5644 38.3765 37.1 38.3765H19.8849ZM19.8849 45.7565C19.4348 45.7565 19.0713 46.1201 19.0713 46.5701C19.0713 47.0202 19.4348 47.3837 19.8849 47.3837H37.1C37.5644 47.3837 37.928 47.0202 37.928 46.5701C37.928 46.1201 37.5644 45.7565 37.1 45.7565H19.8849Z" fill="#041620" />
</svg>
