<svg width="100" height="29" viewBox="0 0 100 29" fill="none" xmlns="http://www.w3.org/2000/svg">
	<path d="M3 26C4.6207 25.1859 6.31707 24.7519 8.05378 24.3076C10.0368 23.8002 12.0725 23.2794 14.1081 22.164C15.2888 21.5709 16.5097 20.7357 17.7434 19.8918C20.1368 18.2546 22.5785 16.5843 24.8691 16.5843C27.2985 16.5843 29.5874 18.1371 31.9146 19.7159C33.2452 20.6185 34.5882 21.5297 35.9772 22.164C39.4485 24.2563 43.267 24.2563 46.7382 19.3741C48.3444 17.4672 49.9506 14.6964 51.5309 11.9702C53.7076 8.2152 55.8352 4.54479 57.8464 3.33254C60.3969 2.16787 62.7925 4.27057 65.2402 6.41894C66.457 7.48692 67.6866 8.56619 68.9545 9.26096C70.6902 10.1328 72.5126 10.1328 74.335 10.1328C76.1574 10.1328 77.9799 10.1328 79.7155 11.0046C81.3233 11.7388 82.9311 13.1531 84.513 14.5446C86.688 16.4578 88.814 18.3279 90.8236 18.3279C92.7328 18.3279 94.5553 16.933 96.3777 15.5381C96.5851 15.3794 96.7925 15.2206 97 15.0639" stroke="#4B40D1" stroke-width="4.5" stroke-linecap="round" />
</svg>
