<svg width="22" height="19" viewBox="0 0 22 19" fill="none" xmlns="http://www.w3.org/2000/svg">
	<path d="M21.6408 8.92351L16.6008 1.27351C16.3322 0.886787 15.8738 0.85163 15.5827 1.15398C15.2916 1.45632 15.2452 2.06275 15.4871 2.42662L19.5482 8.60017L0.918242 8.60017C0.520262 8.60017 0.198242 9.00271 0.198242 9.50017C0.198242 9.99764 0.520273 10.4002 0.918242 10.4002L19.5482 10.4002L15.4871 16.5737C15.2452 16.9376 15.2944 17.5405 15.5827 17.8464C15.8865 18.1698 16.3589 18.0907 16.6008 17.7268L21.6408 10.0768C21.8658 9.63914 21.8363 9.31044 21.6408 8.92371L21.6408 8.92351Z" fill="#9C9C9C" />
</svg>
