<svg width="62" height="20" viewBox="0 0 62 20" fill="none" xmlns="http://www.w3.org/2000/svg">
	<path fill-rule="evenodd" clip-rule="evenodd" d="M21.8262 19.7061L24.9779 0.322266H30.0068L26.8585 19.7061H21.8262Z" fill="#1E55A9" />
	<path fill-rule="evenodd" clip-rule="evenodd" d="M45.0769 0.801039C43.6314 0.267663 42.1102 -0.00319849 40.5784 2.84971e-05C35.5977 2.84971e-05 32.1188 2.62054 32.0913 6.39002C32.0671 9.17001 34.5816 10.7213 36.4864 11.6564C38.3912 12.5915 39.1042 13.2077 39.0801 14.0631C39.0801 15.3751 37.5301 15.9623 36.0799 15.9623C34.4514 16.0114 32.8342 15.664 31.3541 14.9474L30.6928 14.6249L30.0039 18.9561C31.175 19.5179 33.3347 19.9746 35.5943 20C40.8815 20 44.2846 17.4049 44.3363 13.3708C44.3604 11.178 43.0136 9.49259 40.1168 8.10078C38.3636 7.22003 37.2993 6.62924 37.2993 5.72311C37.2993 4.8931 38.2121 4.03771 40.1685 4.03771C41.4584 4.00395 42.7404 4.25843 43.9299 4.78436L44.388 4.99821L45.0769 0.801039Z" fill="#1E55A9" />
	<path fill-rule="evenodd" clip-rule="evenodd" d="M57.9605 0.347656H54.0786C52.8868 0.347656 51.9706 0.710103 51.4367 1.95331L43.9863 19.7315H49.2563C49.2563 19.7315 50.1209 17.3248 50.3241 16.8319H56.7515C56.9031 17.5024 57.3612 19.7315 57.3612 19.7315H62.0008L57.9605 0.347656ZM51.7605 12.8341C52.1669 11.7467 53.7686 7.43355 53.7686 7.43355C53.7169 7.48792 54.175 6.30995 54.4299 5.58868L54.7744 7.24507C54.7744 7.24507 55.7388 11.8699 55.942 12.8341H51.7605Z" fill="#1E55A9" />
	<path fill-rule="evenodd" clip-rule="evenodd" d="M17.6364 0.347656L12.7074 13.5553L12.1976 10.8804C11.2814 7.7815 8.40868 4.43972 5.23633 2.75433L9.73135 19.7061H15.0427L22.9443 0.347656H17.6364Z" fill="#1E55A9" />
	<path fill-rule="evenodd" clip-rule="evenodd" d="M8.15648 0.322266H0.0516648L0 0.749965C6.2758 2.35199 10.4677 6.2302 12.1968 10.8804L10.4195 1.97866C10.1129 0.749959 9.24837 0.373009 8.15648 0.322266Z" fill="#FAA61A" />
</svg>
